<?xml version="1.0" standalone="no"?>
<!DOCTYPE svg PUBLIC "-//W3C//DTD SVG 20010904//EN"
 "http://www.w3.org/TR/2001/REC-SVG-20010904/DTD/svg10.dtd">
<svg version="1.0" xmlns="http://www.w3.org/2000/svg"
 width="512.000000pt" height="512.000000pt" viewBox="0 0 512.000000 512.000000"
 preserveAspectRatio="xMidYMid meet">
<metadata>
Created by potrace 1.14, written by Peter Selinger 2001-2017
</metadata>
<g transform="translate(0.000000,512.000000) scale(0.100000,-0.100000)"
fill="#000000" stroke="none">
<path d="M2418 4495 c-2 -1 -46 -6 -98 -9 -52 -4 -113 -9 -135 -11 -22 -2 -81
-6 -130 -9 -50 -4 -102 -8 -115 -11 -14 -2 -65 -7 -115 -10 -49 -3 -108 -8
-130 -9 -22 -2 -76 -7 -120 -10 -44 -4 -105 -9 -135 -12 -30 -2 -84 -7 -120
-10 -36 -3 -85 -7 -110 -9 -25 -2 -81 -7 -125 -10 -44 -4 -98 -8 -120 -11 -22
-2 -59 -6 -81 -8 -69 -8 -144 -46 -144 -74 0 -6 -3 -12 -7 -14 -5 -1 -26 -25
-47 -51 -62 -77 -55 -117 47 -302 18 -33 62 -114 97 -180 35 -66 83 -156 107
-200 24 -44 51 -96 61 -115 9 -19 19 -37 22 -40 8 -8 50 -94 50 -103 0 -4 -3
-6 -8 -5 -6 2 -75 -8 -125 -18 -12 -2 -42 -7 -67 -10 -25 -3 -48 -8 -51 -10
-3 -2 -21 -6 -40 -9 -19 -3 -56 -10 -84 -15 -27 -5 -66 -12 -85 -15 -19 -3
-48 -8 -65 -12 -16 -3 -37 -7 -45 -8 -8 -1 -28 -5 -45 -8 -16 -4 -43 -9 -60
-12 -16 -3 -41 -7 -55 -10 -14 -3 -43 -8 -65 -11 -22 -3 -56 -13 -76 -22 l-37
-17 25 -90 c47 -172 51 -177 119 -199 32 -11 60 -20 61 -20 1 -1 5 -17 8 -36
3 -19 8 -42 10 -50 2 -8 7 -28 10 -45 4 -28 7 -42 20 -105 2 -14 6 -36 9 -50
2 -14 11 -59 19 -100 9 -41 18 -86 20 -100 3 -14 13 -62 22 -107 9 -45 18 -90
20 -100 2 -10 4 -18 5 -18 1 0 3 -16 6 -35 2 -19 8 -55 14 -80 5 -25 12 -58
15 -75 3 -16 7 -41 11 -55 3 -14 7 -34 9 -45 5 -28 13 -71 25 -135 6 -30 13
-66 16 -80 13 -68 46 -198 56 -225 7 -16 23 -41 35 -55 13 -14 23 -28 23 -33
0 -4 4 -5 10 -2 5 3 10 1 10 -4 0 -6 8 -11 18 -11 9 0 26 -7 36 -15 11 -8 28
-15 37 -15 10 0 25 -8 35 -18 10 -9 19 -16 21 -15 10 7 62 -11 56 -20 -3 -5
-2 -7 4 -4 12 7 94 -23 89 -32 -2 -3 6 -7 17 -7 33 -3 117 -35 117 -46 0 -5 5
-6 10 -3 5 3 10 2 10 -4 0 -6 7 -7 17 -4 10 4 14 2 10 -4 -4 -6 4 -10 20 -10
15 0 29 -6 31 -12 2 -6 14 -11 27 -11 13 0 27 -5 30 -10 4 -6 11 -8 16 -5 5 4
9 -1 9 -11 0 -13 3 -14 15 -4 8 7 15 8 15 3 0 -5 19 -16 43 -23 23 -8 52 -20
65 -28 12 -8 22 -11 22 -6 0 4 5 3 12 -4 7 -7 20 -12 30 -12 10 0 18 -5 18
-11 0 -5 4 -7 10 -4 5 3 10 2 10 -2 0 -5 10 -9 22 -10 30 -3 78 -24 78 -34 0
-5 3 -8 8 -7 4 1 37 -8 74 -21 55 -18 66 -26 63 -41 -2 -11 1 -23 7 -26 6 -4
8 -3 5 2 -11 19 9 37 29 26 11 -5 30 -14 44 -20 14 -5 45 -19 70 -30 25 -10
63 -25 85 -32 55 -17 58 -20 43 -38 -11 -15 -11 -15 2 -5 30 23 66 11 61 -20
-1 -5 3 -6 9 -2 6 3 8 10 5 15 -3 5 14 -1 38 -13 23 -12 49 -23 57 -25 18 -4
31 -23 24 -34 -3 -5 0 -7 8 -6 7 2 12 -3 10 -10 -1 -8 2 -11 8 -7 8 5 6 13 -6
26 -16 18 -7 28 10 11 4 -4 11 -8 14 -8 27 -6 52 -18 52 -25 0 -5 6 -6 14 -3
8 3 17 0 21 -5 3 -6 11 -9 16 -6 5 4 9 1 9 -4 0 -6 6 -11 14 -11 7 0 30 -7 50
-15 20 -8 38 -15 41 -15 3 0 19 -7 35 -15 16 -8 33 -16 37 -18 5 -1 7 -8 7
-14 -1 -9 3 -10 16 -3 13 7 23 6 32 -3 13 -14 21 -17 39 -17 5 0 7 -6 3 -12
-5 -10 -4 -10 5 -2 9 8 22 6 49 -7 20 -11 44 -19 54 -19 10 0 18 -4 18 -10 0
-5 3 -9 8 -9 4 1 9 0 12 -1 6 -2 25 -6 87 -16 27 -4 40 -11 36 -18 -3 -6 0 -5
8 1 14 14 53 18 45 5 -3 -5 1 -9 8 -9 8 0 12 6 9 14 -7 19 17 16 32 -4 9 -13
14 -13 20 -3 5 9 4 11 -3 6 -7 -4 -12 -1 -12 8 0 15 11 19 52 19 10 0 15 4 12
8 -3 5 3 12 13 16 10 4 20 9 23 12 13 15 111 61 105 49 -4 -7 3 -2 15 12 12
14 19 20 16 14 -3 -6 1 -11 8 -11 8 0 12 7 8 15 -3 10 -1 13 6 8 7 -4 12 -2
12 4 0 7 7 9 16 6 8 -3 13 -2 10 2 -3 5 12 18 33 29 30 16 42 18 51 9 8 -8 10
-7 5 5 -4 11 7 22 39 38 25 12 48 22 51 22 3 -1 14 8 25 19 12 12 25 18 30 15
6 -4 10 -2 10 4 0 11 38 26 57 23 6 -2 15 3 19 9 4 8 3 9 -4 5 -7 -4 -12 -2
-12 5 0 6 8 9 19 6 11 -3 22 0 24 7 3 6 19 20 37 30 23 13 31 15 26 5 -4 -8 0
-5 8 5 9 11 16 16 16 12 0 -4 7 0 16 8 17 17 39 12 28 -6 -4 -7 -2 -8 4 -4 6
4 9 13 6 21 -4 9 1 18 12 22 11 3 32 15 48 26 25 17 31 18 50 7 19 -12 20 -12
8 3 -14 16 0 33 18 22 6 -3 10 1 10 9 0 9 7 16 15 16 9 0 25 9 37 19 11 11 27
17 36 14 10 -4 13 -2 8 5 -4 7 -1 12 9 12 9 0 23 7 31 15 18 18 38 20 28 3 -4
-7 -3 -8 5 -4 6 4 9 11 7 15 -3 4 6 14 20 22 22 11 27 11 35 -1 8 -12 9 -11 7
5 -2 14 2 20 14 19 10 -1 16 1 14 5 -2 3 8 15 22 25 14 11 22 14 18 8 -4 -7
-3 -12 2 -12 5 0 12 9 15 21 4 13 10 18 18 13 8 -5 10 -3 5 5 -5 8 -1 14 12
18 13 3 18 11 15 19 -3 9 2 14 13 15 12 0 14 3 6 6 -8 3 -10 9 -4 16 8 10 13
24 28 82 2 8 21 94 40 180 2 11 7 34 10 50 3 17 11 59 19 95 15 69 23 106 31
155 3 17 10 48 16 70 5 22 12 51 14 65 3 14 11 54 19 90 8 36 17 80 20 99 3
19 19 96 36 170 16 75 32 147 34 161 3 14 7 36 10 50 40 204 46 220 70 220 14
0 91 32 112 47 21 15 93 264 83 284 -9 16 -65 33 -150 45 -19 2 -44 7 -56 9
-12 3 -39 7 -60 10 -21 3 -66 11 -99 16 -33 6 -73 13 -90 15 -51 6 -99 14
-115 19 -8 2 -37 7 -65 10 -27 4 -59 8 -70 10 -32 5 -92 15 -224 36 -68 12
-133 22 -144 25 -11 2 -45 6 -76 10 -31 3 -58 8 -61 9 -3 2 -26 6 -50 10 -25
3 -70 10 -100 15 -30 5 -68 12 -85 14 -16 3 -44 7 -61 10 -17 3 -46 8 -65 10
-87 12 -105 18 -126 44 -13 15 -23 32 -23 39 0 6 -6 18 -13 25 -11 12 -261
426 -296 492 -9 17 -20 35 -24 40 -4 6 -51 83 -102 171 -52 88 -99 167 -104
175 -5 8 -30 49 -54 91 -51 86 -105 146 -139 154 -28 6 -106 14 -110 10z m-3
-221 c27 -17 50 -52 129 -189 31 -55 61 -107 66 -115 23 -38 89 -149 112 -190
14 -25 76 -130 138 -235 61 -104 116 -198 121 -208 10 -17 -2 -18 -85 -1 -11
2 -41 7 -66 9 -25 3 -52 8 -60 10 -8 3 -33 7 -55 10 -22 3 -65 10 -95 15 -53
9 -89 14 -167 25 -21 3 -51 9 -68 12 -16 4 -39 7 -50 8 -11 1 -36 5 -55 8 -19
4 -53 10 -75 14 -74 13 -272 7 -331 -10 -10 -3 -37 -8 -59 -12 -22 -3 -47 -7
-55 -10 -8 -2 -31 -7 -50 -9 -19 -3 -44 -7 -55 -9 -11 -2 -36 -7 -55 -11 -19
-3 -45 -8 -56 -10 -12 -2 -37 -7 -55 -10 -19 -3 -45 -8 -59 -11 -79 -17 -95
-16 -106 7 -15 33 -125 241 -134 253 -4 6 -31 55 -60 110 -29 55 -61 114 -70
130 -10 17 -34 62 -55 100 -21 39 -53 98 -71 132 l-34 61 57 6 c32 4 78 9 103
11 113 11 168 16 200 20 19 3 62 7 95 10 67 5 142 13 195 20 19 3 65 7 101 10
36 3 74 7 85 9 11 2 60 7 109 11 49 4 92 8 95 10 3 2 44 6 92 10 49 3 97 8
108 10 11 2 59 7 108 10 48 4 89 8 90 10 7 7 55 -6 77 -21z m46 -1236 c3 -5 7
-103 8 -218 1 -165 -1 -208 -11 -206 -7 2 -29 6 -48 10 l-35 7 1 197 c1 259
-3 234 42 226 20 -4 40 -11 43 -16z m-632 -80 c7 -180 6 -203 -5 -201 -6 1
-24 4 -39 7 -16 3 -32 9 -36 13 -4 4 -11 63 -14 130 -7 122 -7 123 17 132 12
6 34 10 48 10 25 1 25 0 29 -91z m887 37 l32 -6 -4 -216 c-2 -119 -6 -219 -9
-221 -2 -3 -25 1 -50 8 -42 12 -52 23 -45 55 1 5 3 84 5 175 2 91 4 178 4 193
1 22 5 27 19 23 9 -2 31 -7 48 -11z m-1126 -46 c9 -72 0 -76 -30 -18 -15 30
-26 57 -24 60 2 4 14 6 26 5 20 -1 24 -8 28 -47z m1441 -15 c7 -4 8 -65 3
-172 -4 -92 -7 -188 -8 -214 -1 -26 -5 -50 -8 -54 -4 -3 -25 -3 -48 1 -29 5
-44 13 -50 28 -4 12 -6 25 -3 29 2 4 6 74 9 155 3 81 7 162 9 178 2 17 3 38 4
48 1 16 7 18 42 13 22 -3 45 -8 50 -12z m-1755 -21 c20 -27 17 -34 -13 -30
-26 3 -29 8 -24 37 2 16 23 12 37 -7z m2067 -40 c8 -5 5 -106 -9 -258 -3 -33
-6 -73 -8 -89 -3 -31 -16 -39 -89 -50 l-28 -4 6 76 c3 42 7 104 10 137 3 33 7
86 10 119 7 93 9 95 57 84 23 -5 45 -11 51 -15z m307 -54 c29 -7 30 -26 15
-144 -2 -16 -4 -39 -4 -51 -1 -16 -13 -24 -54 -37 -72 -23 -78 -22 -73 11 3
15 8 59 11 97 4 39 11 86 16 106 10 40 5 39 89 18z m335 -64 c11 -2 23 -4 28
-4 4 -1 7 -7 7 -15 0 -8 -25 -23 -62 -35 -78 -27 -80 -26 -72 7 14 65 14 65
48 57 17 -4 40 -9 51 -10z m-2680 -355 c2 -14 6 -52 9 -85 4 -33 9 -72 12 -87
3 -17 1 -28 -5 -28 -6 0 -12 6 -12 13 -3 26 -8 74 -14 117 -3 25 -7 68 -10 95
-3 41 -2 46 6 25 6 -14 12 -36 14 -50z m276 -5 c12 -3 23 -6 26 -8 6 -6 17
-88 27 -207 3 -25 8 -79 12 -120 4 -41 7 -95 8 -119 1 -42 -1 -45 -33 -53 -18
-5 -35 -7 -38 -5 -4 5 -7 28 -18 172 -3 39 -8 86 -10 105 -2 19 -7 71 -10 115
-3 44 -7 89 -9 100 -4 24 2 37 15 30 5 -4 19 -8 30 -10z m2733 -27 c-5 -46
-12 -83 -14 -83 -1 0 -3 -13 -5 -30 -2 -16 -7 -40 -10 -53 -3 -12 -8 -42 -11
-66 -5 -44 -9 -69 -19 -116 -3 -14 -7 -38 -9 -55 -4 -30 -60 -349 -73 -415 -9
-50 -10 -54 -11 -67 -2 -10 -8 -10 -29 -1 -16 7 -29 12 -30 13 -1 0 2 20 7 45
5 25 11 65 15 90 3 25 10 68 15 95 5 28 12 69 15 93 3 24 7 53 10 65 9 42 16
82 20 119 2 20 6 45 9 55 3 10 8 38 11 63 3 25 10 71 16 103 5 32 12 70 14 85
7 56 17 80 38 90 41 20 47 15 41 -30z m-2447 -153 c2 -55 5 -131 7 -168 1 -37
-1 -70 -6 -73 -4 -3 -8 10 -9 28 -1 18 -2 53 -4 78 -12 162 -12 241 -3 238 6
-2 12 -46 15 -103z m1978 -17 c-2 -18 -6 -51 -10 -73 -3 -22 -8 -58 -10 -80
-2 -22 -7 -56 -10 -75 -3 -19 -8 -55 -10 -80 -3 -25 -7 -56 -10 -70 -3 -14 -7
-49 -10 -79 -7 -73 -16 -145 -20 -150 -2 -1 -8 0 -14 3 -11 7 -5 111 15 231 3
16 7 48 10 70 3 22 6 51 8 65 2 14 7 45 10 70 3 25 8 54 10 66 2 12 7 45 11
75 4 30 9 57 12 62 10 16 21 -5 18 -35z m-2511 -50 c3 -24 8 -65 12 -93 3 -27
7 -61 10 -75 10 -60 16 -184 8 -177 -9 8 -9 9 -19 93 -3 32 -8 73 -10 89 -2
17 -6 55 -9 85 -4 30 -9 70 -12 88 -4 18 -2 32 4 32 5 0 12 -19 16 -42z m2252
-35 c-2 -16 -7 -64 -11 -108 -3 -44 -8 -91 -10 -105 -2 -14 -6 -56 -10 -95 -8
-95 -15 -148 -18 -151 -2 -2 -21 2 -43 9 -45 13 -42 0 -30 142 15 174 17 201
21 220 2 11 4 33 4 48 1 23 9 31 44 47 55 25 58 25 53 -7z m-891 -22 c4 -8 8
-100 6 -162 -1 -33 -4 -36 -26 -33 -45 4 -51 17 -49 101 3 135 0 123 34 111
17 -5 32 -13 35 -17z"/>
<path d="M630 1360 c0 -5 5 -10 11 -10 5 0 7 5 4 10 -3 6 -8 10 -11 10 -2 0
-4 -4 -4 -10z"/>
<path d="M675 1285 c0 -13 3 -21 8 -18 4 2 7 10 7 18 0 8 -3 16 -7 18 -5 3 -8
-5 -8 -18z"/>
<path d="M826 1198 c3 -5 10 -6 15 -3 13 9 11 12 -6 12 -8 0 -12 -4 -9 -9z"/>
<path d="M975 1140 c3 -5 8 -10 11 -10 2 0 4 5 4 10 0 6 -5 10 -11 10 -5 0 -7
-4 -4 -10z"/>
<path d="M1000 1120 c-9 -6 -10 -10 -3 -10 6 0 15 5 18 10 8 12 4 12 -15 0z"/>
<path d="M1095 1091 c-3 -5 -2 -12 3 -15 5 -3 9 1 9 9 0 17 -3 19 -12 6z"/>
<path d="M4410 1079 c0 -5 5 -7 10 -4 6 3 10 8 10 11 0 2 -4 4 -10 4 -5 0 -10
-5 -10 -11z"/>
<path d="M4315 1000 c3 -5 8 -10 11 -10 2 0 4 5 4 10 0 6 -5 10 -11 10 -5 0
-7 -4 -4 -10z"/>
<path d="M4253 985 c0 -8 4 -12 9 -9 5 3 6 10 3 15 -9 13 -12 11 -12 -6z"/>
<path d="M1389 963 c-13 -16 -12 -17 4 -4 16 13 21 21 13 21 -2 0 -10 -8 -17
-17z"/>
<path d="M1455 940 c3 -5 8 -10 11 -10 2 0 4 5 4 10 0 6 -5 10 -11 10 -5 0 -7
-4 -4 -10z"/>
<path d="M4129 917 c6 -8 7 -18 3 -22 -4 -5 -1 -5 6 -1 10 6 10 11 1 22 -6 8
-14 14 -16 14 -3 0 0 -6 6 -13z"/>
<path d="M1610 880 c0 -5 5 -10 11 -10 5 0 7 5 4 10 -3 6 -8 10 -11 10 -2 0
-4 -4 -4 -10z"/>
<path d="M3993 767 c0 -8 6 -14 14 -14 9 0 10 4 2 14 -6 7 -12 13 -14 13 -1 0
-2 -6 -2 -13z"/>
<path d="M1990 719 c0 -5 5 -7 10 -4 6 3 10 8 10 11 0 2 -4 4 -10 4 -5 0 -10
-5 -10 -11z"/>
<path d="M3774 716 c1 -8 5 -18 8 -22 4 -3 5 1 4 10 -1 8 -5 18 -8 22 -4 3 -5
-1 -4 -10z"/>
<path d="M2033 685 c0 -8 4 -12 9 -9 5 3 6 10 3 15 -9 13 -12 11 -12 -6z"/>
<path d="M2095 689 c-4 -6 -5 -12 -2 -15 2 -3 7 2 10 11 7 17 1 20 -8 4z"/>
<path d="M2210 639 c0 -5 5 -7 10 -4 6 3 10 8 10 11 0 2 -4 4 -10 4 -5 0 -10
-5 -10 -11z"/>
<path d="M2250 625 c0 -5 5 -17 10 -25 5 -8 10 -10 10 -5 0 6 -5 17 -10 25 -5
8 -10 11 -10 5z"/>
<path d="M3559 593 c-13 -16 -12 -17 4 -4 16 13 21 21 13 21 -2 0 -10 -8 -17
-17z"/>
<path d="M2419 553 c-13 -16 -12 -17 4 -4 16 13 21 21 13 21 -2 0 -10 -8 -17
-17z"/>
<path d="M3440 540 c-9 -6 -10 -10 -3 -10 6 0 15 5 18 10 8 12 4 12 -15 0z"/>
<path d="M2493 527 c0 -8 6 -14 14 -14 9 0 10 4 2 14 -6 7 -12 13 -14 13 -1 0
-2 -6 -2 -13z"/>
<path d="M3410 499 c0 -5 5 -7 10 -4 6 3 10 8 10 11 0 2 -4 4 -10 4 -5 0 -10
-5 -10 -11z"/>
<path d="M2575 489 c-4 -6 -5 -12 -2 -15 2 -3 7 2 10 11 7 17 1 20 -8 4z"/>
<path d="M3355 469 c-4 -6 -5 -12 -2 -15 2 -3 7 2 10 11 7 17 1 20 -8 4z"/>
<path d="M2595 449 c-4 -6 -5 -12 -2 -15 2 -3 7 2 10 11 7 17 1 20 -8 4z"/>
<path d="M2760 420 c-9 -6 -10 -10 -3 -10 6 0 15 5 18 10 8 12 4 12 -15 0z"/>
<path d="M3238 423 c7 -3 16 -2 19 1 4 3 -2 6 -13 5 -11 0 -14 -3 -6 -6z"/>
<path d="M2850 391 c0 -6 4 -13 10 -16 6 -3 7 1 4 9 -7 18 -14 21 -14 7z"/>
<path d="M2705 380 c-3 -6 1 -7 9 -4 18 7 21 14 7 14 -6 0 -13 -4 -16 -10z"/>
</g>
</svg>
